<svg width="32" height="33" viewBox="0 0 32 33" fill="none" xmlns="http://www.w3.org/2000/svg">
<g clip-path="url(#clip0_53_2006)">
<path d="M13.3335 16.5C13.3335 17.2073 13.6144 17.8856 14.1145 18.3857C14.6146 18.8858 15.2929 19.1667 16.0002 19.1667C16.7074 19.1667 17.3857 18.8858 17.8858 18.3857C18.3859 17.8856 18.6668 17.2073 18.6668 16.5C18.6668 15.7928 18.3859 15.1145 17.8858 14.6144C17.3857 14.1143 16.7074 13.8334 16.0002 13.8334C15.2929 13.8334 14.6146 14.1143 14.1145 14.6144C13.6144 15.1145 13.3335 15.7928 13.3335 16.5Z" stroke="#0A0F1C" stroke-width="2.16667" stroke-linecap="round" stroke-linejoin="round"/>
<path d="M15.5587 24.492C10.9542 24.332 7.10133 21.668 4 16.5C7.2 11.1667 11.2 8.5 16 8.5C20.8 8.5 24.8 11.1667 28 16.5" stroke="#0A0F1C" stroke-width="2.16667" stroke-linecap="round" stroke-linejoin="round"/>
<path d="M25.3332 30.5C25.6069 29.3683 26.1873 28.334 27.0106 27.5107C27.8339 26.6875 28.8682 26.107 29.9998 25.8333C28.8682 25.5595 27.8339 24.9791 27.0106 24.1559C26.1873 23.3326 25.6069 22.2983 25.3332 21.1666C25.0594 22.2983 24.479 23.3326 23.6557 24.1559C22.8325 24.9791 21.7982 25.5595 20.6665 25.8333C21.7982 26.107 22.8325 26.6875 23.6557 27.5107C24.479 28.334 25.0594 29.3683 25.3332 30.5Z" stroke="#0A0F1C" stroke-width="2.16667" stroke-linecap="round" stroke-linejoin="round"/>
</g>
<defs>
<clipPath id="clip0_53_2006">
<rect width="32" height="32" fill="white" transform="translate(0 0.5)"/>
</clipPath>
</defs>
</svg>
