<svg width="44" height="51" viewBox="0 0 44 51" fill="none" xmlns="http://www.w3.org/2000/svg">
<path d="M11 0.97998H31C36.2467 0.97998 40.5 5.23328 40.5 10.48V30.48C40.5 35.7267 36.2467 39.98 31 39.98H11C5.7533 39.98 1.5 35.7267 1.5 30.48V10.48C1.5 5.23328 5.7533 0.97998 11 0.97998Z" fill="white"/>
<path d="M11 0.97998H31C36.2467 0.97998 40.5 5.23328 40.5 10.48V30.48C40.5 35.7267 36.2467 39.98 31 39.98H11C5.7533 39.98 1.5 35.7267 1.5 30.48V10.48C1.5 5.23328 5.7533 0.97998 11 0.97998Z" stroke="#D5D7DA"/>
<g filter="url(#filter0_dddi_204_11845)">
<path d="M5 10.48C5 7.16627 7.68629 4.47998 11 4.47998H31C34.3137 4.47998 37 7.16627 37 10.48V30.48C37 33.7937 34.3137 36.48 31 36.48H11C7.68629 36.48 5 33.7937 5 30.48V10.48Z" fill="white"/>
<path d="M31 3.97998C34.5899 3.97998 37.5 6.89013 37.5 10.48V30.48C37.5 34.0698 34.5899 36.98 31 36.98H11C7.41015 36.98 4.5 34.0698 4.5 30.48V10.48C4.5 6.89013 7.41015 3.97998 11 3.97998H31Z" stroke="black" stroke-opacity="0.08"/>
<path d="M16.4167 27.1465H15.1667C14.2462 27.1465 13.5 26.4003 13.5 25.4798V13.8132C13.5 12.8927 14.2462 12.1465 15.1667 12.1465H26.8333C27.7538 12.1465 28.5 12.8927 28.5 13.8132V25.4798C28.5 26.4003 27.7538 27.1465 26.8333 27.1465H25.5833M21 26.3132C22.3807 26.3132 23.5 25.1939 23.5 23.8132C23.5 22.4324 22.3807 21.3132 21 21.3132C19.6193 21.3132 18.5 22.4324 18.5 23.8132C18.5 25.1939 19.6193 26.3132 21 26.3132ZM21 26.3132L21.0179 26.313L18.3572 28.9736L16.0002 26.6166L18.5164 24.1004M21 26.3132L23.6607 28.9736L26.0177 26.6166L23.5015 24.1004M18.5 15.4798H23.5M16.8333 18.3965H25.1667" stroke="#414651" stroke-width="1.66667" stroke-linecap="round" stroke-linejoin="round"/>
</g>
<defs>
<filter id="filter0_dddi_204_11845" x="0" y="1.47998" width="44" height="49" filterUnits="userSpaceOnUse" color-interpolation-filters="sRGB">
<feFlood flood-opacity="0" result="BackgroundImageFix"/>
<feColorMatrix in="SourceAlpha" type="matrix" values="0 0 0 0 0 0 0 0 0 0 0 0 0 0 0 0 0 0 127 0" result="hardAlpha"/>
<feOffset dy="1"/>
<feGaussianBlur stdDeviation="1"/>
<feColorMatrix type="matrix" values="0 0 0 0 0.0392157 0 0 0 0 0.0496732 0 0 0 0 0.0705882 0 0 0 0.1 0"/>
<feBlend mode="normal" in2="BackgroundImageFix" result="effect1_dropShadow_204_11845"/>
<feColorMatrix in="SourceAlpha" type="matrix" values="0 0 0 0 0 0 0 0 0 0 0 0 0 0 0 0 0 0 127 0" result="hardAlpha"/>
<feOffset dy="3"/>
<feGaussianBlur stdDeviation="1.5"/>
<feColorMatrix type="matrix" values="0 0 0 0 0.0392157 0 0 0 0 0.0496732 0 0 0 0 0.0705882 0 0 0 0.1 0"/>
<feBlend mode="normal" in2="effect1_dropShadow_204_11845" result="effect2_dropShadow_204_11845"/>
<feColorMatrix in="SourceAlpha" type="matrix" values="0 0 0 0 0 0 0 0 0 0 0 0 0 0 0 0 0 0 127 0" result="hardAlpha"/>
<feOffset dx="1" dy="8"/>
<feGaussianBlur stdDeviation="2.5"/>
<feColorMatrix type="matrix" values="0 0 0 0 0.0392157 0 0 0 0 0.0496732 0 0 0 0 0.0705882 0 0 0 0.05 0"/>
<feBlend mode="normal" in2="effect2_dropShadow_204_11845" result="effect3_dropShadow_204_11845"/>
<feBlend mode="normal" in="SourceGraphic" in2="effect3_dropShadow_204_11845" result="shape"/>
<feColorMatrix in="SourceAlpha" type="matrix" values="0 0 0 0 0 0 0 0 0 0 0 0 0 0 0 0 0 0 127 0" result="hardAlpha"/>
<feOffset dy="-2"/>
<feGaussianBlur stdDeviation="1"/>
<feComposite in2="hardAlpha" operator="arithmetic" k2="-1" k3="1"/>
<feColorMatrix type="matrix" values="0 0 0 0 0.0392157 0 0 0 0 0.0496732 0 0 0 0 0.0705882 0 0 0 0.1 0"/>
<feBlend mode="normal" in2="shape" result="effect4_innerShadow_204_11845"/>
</filter>
</defs>
</svg>
