<svg width="44" height="51" viewBox="0 0 44 51" fill="none" xmlns="http://www.w3.org/2000/svg">
<path d="M11 0.97998H31C36.2467 0.97998 40.5 5.23328 40.5 10.48V30.48C40.5 35.7267 36.2467 39.98 31 39.98H11C5.7533 39.98 1.5 35.7267 1.5 30.48V10.48C1.5 5.23328 5.7533 0.97998 11 0.97998Z" fill="white"/>
<path d="M11 0.97998H31C36.2467 0.97998 40.5 5.23328 40.5 10.48V30.48C40.5 35.7267 36.2467 39.98 31 39.98H11C5.7533 39.98 1.5 35.7267 1.5 30.48V10.48C1.5 5.23328 5.7533 0.97998 11 0.97998Z" stroke="#D5D7DA"/>
<g filter="url(#filter0_dddi_204_11852)">
<path d="M5 10.48C5 7.16627 7.68629 4.47998 11 4.47998H31C34.3137 4.47998 37 7.16627 37 10.48V30.48C37 33.7937 34.3137 36.48 31 36.48H11C7.68629 36.48 5 33.7937 5 30.48V10.48Z" fill="white"/>
<path d="M31 3.97998C34.5899 3.97998 37.5 6.89013 37.5 10.48V30.48C37.5 34.0698 34.5899 36.98 31 36.98H11C7.41015 36.98 4.5 34.0698 4.5 30.48V10.48C4.5 6.89013 7.41015 3.97998 11 3.97998H31Z" stroke="black" stroke-opacity="0.08"/>
<path d="M13.0829 17.98H28.9163M19.3329 12.98L17.6663 17.98L20.9996 27.5633L24.3329 17.98L22.6663 12.98M21.5118 27.3654L28.9773 18.4068C29.1038 18.2549 29.1671 18.179 29.1912 18.0943C29.2126 18.0196 29.2126 17.9404 29.1912 17.8657C29.1671 17.7809 29.1038 17.705 28.9773 17.5532L25.3662 13.2199C25.2927 13.1317 25.256 13.0876 25.2109 13.0559C25.171 13.0278 25.1265 13.007 25.0794 12.9943C25.0262 12.98 24.9688 12.98 24.854 12.98H17.1452C17.0304 12.98 16.973 12.98 16.9199 12.9943C16.8727 13.007 16.8282 13.0278 16.7883 13.0559C16.7433 13.0876 16.7065 13.1317 16.633 13.2199L13.0219 17.5532C12.8954 17.705 12.8322 17.7809 12.808 17.8657C12.7867 17.9404 12.7867 18.0196 12.808 18.0943C12.8322 18.179 12.8954 18.2549 13.0219 18.4068L20.4875 27.3654C20.6633 27.5765 20.7513 27.682 20.8566 27.7205C20.9489 27.7542 21.0503 27.7542 21.1427 27.7205C21.2479 27.682 21.3359 27.5765 21.5118 27.3654Z" stroke="#414651" stroke-width="1.66667" stroke-linecap="round" stroke-linejoin="round"/>
</g>
<defs>
<filter id="filter0_dddi_204_11852" x="0" y="1.47998" width="44" height="49" filterUnits="userSpaceOnUse" color-interpolation-filters="sRGB">
<feFlood flood-opacity="0" result="BackgroundImageFix"/>
<feColorMatrix in="SourceAlpha" type="matrix" values="0 0 0 0 0 0 0 0 0 0 0 0 0 0 0 0 0 0 127 0" result="hardAlpha"/>
<feOffset dy="1"/>
<feGaussianBlur stdDeviation="1"/>
<feColorMatrix type="matrix" values="0 0 0 0 0.0392157 0 0 0 0 0.0496732 0 0 0 0 0.0705882 0 0 0 0.1 0"/>
<feBlend mode="normal" in2="BackgroundImageFix" result="effect1_dropShadow_204_11852"/>
<feColorMatrix in="SourceAlpha" type="matrix" values="0 0 0 0 0 0 0 0 0 0 0 0 0 0 0 0 0 0 127 0" result="hardAlpha"/>
<feOffset dy="3"/>
<feGaussianBlur stdDeviation="1.5"/>
<feColorMatrix type="matrix" values="0 0 0 0 0.0392157 0 0 0 0 0.0496732 0 0 0 0 0.0705882 0 0 0 0.1 0"/>
<feBlend mode="normal" in2="effect1_dropShadow_204_11852" result="effect2_dropShadow_204_11852"/>
<feColorMatrix in="SourceAlpha" type="matrix" values="0 0 0 0 0 0 0 0 0 0 0 0 0 0 0 0 0 0 127 0" result="hardAlpha"/>
<feOffset dx="1" dy="8"/>
<feGaussianBlur stdDeviation="2.5"/>
<feColorMatrix type="matrix" values="0 0 0 0 0.0392157 0 0 0 0 0.0496732 0 0 0 0 0.0705882 0 0 0 0.05 0"/>
<feBlend mode="normal" in2="effect2_dropShadow_204_11852" result="effect3_dropShadow_204_11852"/>
<feBlend mode="normal" in="SourceGraphic" in2="effect3_dropShadow_204_11852" result="shape"/>
<feColorMatrix in="SourceAlpha" type="matrix" values="0 0 0 0 0 0 0 0 0 0 0 0 0 0 0 0 0 0 127 0" result="hardAlpha"/>
<feOffset dy="-2"/>
<feGaussianBlur stdDeviation="1"/>
<feComposite in2="hardAlpha" operator="arithmetic" k2="-1" k3="1"/>
<feColorMatrix type="matrix" values="0 0 0 0 0.0392157 0 0 0 0 0.0496732 0 0 0 0 0.0705882 0 0 0 0.1 0"/>
<feBlend mode="normal" in2="shape" result="effect4_innerShadow_204_11852"/>
</filter>
</defs>
</svg>
