<svg width="44" height="51" viewBox="0 0 44 51" fill="none" xmlns="http://www.w3.org/2000/svg">
<path d="M11 0.97998H31C36.2467 0.97998 40.5 5.23328 40.5 10.48V30.48C40.5 35.7267 36.2467 39.98 31 39.98H11C5.7533 39.98 1.5 35.7267 1.5 30.48V10.48C1.5 5.23328 5.7533 0.97998 11 0.97998Z" fill="white"/>
<path d="M11 0.97998H31C36.2467 0.97998 40.5 5.23328 40.5 10.48V30.48C40.5 35.7267 36.2467 39.98 31 39.98H11C5.7533 39.98 1.5 35.7267 1.5 30.48V10.48C1.5 5.23328 5.7533 0.97998 11 0.97998Z" stroke="#D5D7DA"/>
<g filter="url(#filter0_dddi_204_11859)">
<path d="M5 10.48C5 7.16627 7.68629 4.47998 11 4.47998H31C34.3137 4.47998 37 7.16627 37 10.48V30.48C37 33.7937 34.3137 36.48 31 36.48H11C7.68629 36.48 5 33.7937 5 30.48V10.48Z" fill="white"/>
<path d="M31 3.97998C34.5899 3.97998 37.5 6.89013 37.5 10.48V30.48C37.5 34.0698 34.5899 36.98 31 36.98H11C7.41015 36.98 4.5 34.0698 4.5 30.48V10.48C4.5 6.89013 7.41015 3.97998 11 3.97998H31Z" stroke="black" stroke-opacity="0.08"/>
<path fill-rule="evenodd" clip-rule="evenodd" d="M20.9943 14.7598C19.3282 12.812 16.5498 12.288 14.4622 14.0717C12.3747 15.8553 12.0808 18.8375 13.7202 20.947C15.0832 22.7009 19.2081 26.4001 20.5601 27.5973C20.7113 27.7313 20.787 27.7983 20.8752 27.8246C20.9522 27.8476 21.0364 27.8476 21.1134 27.8246C21.2016 27.7983 21.2773 27.7313 21.4285 27.5973C22.7804 26.4001 26.9054 22.7009 28.2684 20.947C29.9078 18.8375 29.6498 15.8365 27.5263 14.0717C25.4029 12.3068 22.6604 12.812 20.9943 14.7598Z" stroke="#414651" stroke-width="1.66667" stroke-linecap="round" stroke-linejoin="round"/>
</g>
<defs>
<filter id="filter0_dddi_204_11859" x="0" y="1.47998" width="44" height="49" filterUnits="userSpaceOnUse" color-interpolation-filters="sRGB">
<feFlood flood-opacity="0" result="BackgroundImageFix"/>
<feColorMatrix in="SourceAlpha" type="matrix" values="0 0 0 0 0 0 0 0 0 0 0 0 0 0 0 0 0 0 127 0" result="hardAlpha"/>
<feOffset dy="1"/>
<feGaussianBlur stdDeviation="1"/>
<feColorMatrix type="matrix" values="0 0 0 0 0.0392157 0 0 0 0 0.0496732 0 0 0 0 0.0705882 0 0 0 0.1 0"/>
<feBlend mode="normal" in2="BackgroundImageFix" result="effect1_dropShadow_204_11859"/>
<feColorMatrix in="SourceAlpha" type="matrix" values="0 0 0 0 0 0 0 0 0 0 0 0 0 0 0 0 0 0 127 0" result="hardAlpha"/>
<feOffset dy="3"/>
<feGaussianBlur stdDeviation="1.5"/>
<feColorMatrix type="matrix" values="0 0 0 0 0.0392157 0 0 0 0 0.0496732 0 0 0 0 0.0705882 0 0 0 0.1 0"/>
<feBlend mode="normal" in2="effect1_dropShadow_204_11859" result="effect2_dropShadow_204_11859"/>
<feColorMatrix in="SourceAlpha" type="matrix" values="0 0 0 0 0 0 0 0 0 0 0 0 0 0 0 0 0 0 127 0" result="hardAlpha"/>
<feOffset dx="1" dy="8"/>
<feGaussianBlur stdDeviation="2.5"/>
<feColorMatrix type="matrix" values="0 0 0 0 0.0392157 0 0 0 0 0.0496732 0 0 0 0 0.0705882 0 0 0 0.05 0"/>
<feBlend mode="normal" in2="effect2_dropShadow_204_11859" result="effect3_dropShadow_204_11859"/>
<feBlend mode="normal" in="SourceGraphic" in2="effect3_dropShadow_204_11859" result="shape"/>
<feColorMatrix in="SourceAlpha" type="matrix" values="0 0 0 0 0 0 0 0 0 0 0 0 0 0 0 0 0 0 127 0" result="hardAlpha"/>
<feOffset dy="-2"/>
<feGaussianBlur stdDeviation="1"/>
<feComposite in2="hardAlpha" operator="arithmetic" k2="-1" k3="1"/>
<feColorMatrix type="matrix" values="0 0 0 0 0.0392157 0 0 0 0 0.0496732 0 0 0 0 0.0705882 0 0 0 0.1 0"/>
<feBlend mode="normal" in2="shape" result="effect4_innerShadow_204_11859"/>
</filter>
</defs>
</svg>
