<svg width="44" height="51" viewBox="0 0 44 51" fill="none" xmlns="http://www.w3.org/2000/svg">
<path d="M11 0.97998H31C36.2467 0.97998 40.5 5.23328 40.5 10.48V30.48C40.5 35.7267 36.2467 39.98 31 39.98H11C5.7533 39.98 1.5 35.7267 1.5 30.48V10.48C1.5 5.23328 5.7533 0.97998 11 0.97998Z" fill="white"/>
<path d="M11 0.97998H31C36.2467 0.97998 40.5 5.23328 40.5 10.48V30.48C40.5 35.7267 36.2467 39.98 31 39.98H11C5.7533 39.98 1.5 35.7267 1.5 30.48V10.48C1.5 5.23328 5.7533 0.97998 11 0.97998Z" stroke="#D5D7DA"/>
<g filter="url(#filter0_dddi_204_11866)">
<path d="M5 10.48C5 7.16627 7.68629 4.47998 11 4.47998H31C34.3137 4.47998 37 7.16627 37 10.48V30.48C37 33.7937 34.3137 36.48 31 36.48H11C7.68629 36.48 5 33.7937 5 30.48V10.48Z" fill="white"/>
<path d="M31 3.97998C34.5899 3.97998 37.5 6.89013 37.5 10.48V30.48C37.5 34.0698 34.5899 36.98 31 36.98H11C7.41015 36.98 4.5 34.0698 4.5 30.48V10.48C4.5 6.89013 7.41015 3.97998 11 3.97998H31Z" stroke="black" stroke-opacity="0.08"/>
<path d="M19.3333 25.1953V27.1465C19.3333 28.067 20.0795 28.8132 21 28.8132C21.9205 28.8132 22.6667 28.067 22.6667 27.1465V25.1953M21 12.1465V12.9798M13.5 20.4798H12.6667M15.5833 15.0632L15.0833 14.5631M26.4167 15.0632L26.9169 14.5631M29.3333 20.4798H28.5M26 20.4798C26 23.2412 23.7614 25.4798 21 25.4798C18.2386 25.4798 16 23.2412 16 20.4798C16 17.7184 18.2386 15.4798 21 15.4798C23.7614 15.4798 26 17.7184 26 20.4798Z" stroke="#414651" stroke-width="1.66667" stroke-linecap="round" stroke-linejoin="round"/>
</g>
<defs>
<filter id="filter0_dddi_204_11866" x="0" y="1.47998" width="44" height="49" filterUnits="userSpaceOnUse" color-interpolation-filters="sRGB">
<feFlood flood-opacity="0" result="BackgroundImageFix"/>
<feColorMatrix in="SourceAlpha" type="matrix" values="0 0 0 0 0 0 0 0 0 0 0 0 0 0 0 0 0 0 127 0" result="hardAlpha"/>
<feOffset dy="1"/>
<feGaussianBlur stdDeviation="1"/>
<feColorMatrix type="matrix" values="0 0 0 0 0.0392157 0 0 0 0 0.0496732 0 0 0 0 0.0705882 0 0 0 0.1 0"/>
<feBlend mode="normal" in2="BackgroundImageFix" result="effect1_dropShadow_204_11866"/>
<feColorMatrix in="SourceAlpha" type="matrix" values="0 0 0 0 0 0 0 0 0 0 0 0 0 0 0 0 0 0 127 0" result="hardAlpha"/>
<feOffset dy="3"/>
<feGaussianBlur stdDeviation="1.5"/>
<feColorMatrix type="matrix" values="0 0 0 0 0.0392157 0 0 0 0 0.0496732 0 0 0 0 0.0705882 0 0 0 0.1 0"/>
<feBlend mode="normal" in2="effect1_dropShadow_204_11866" result="effect2_dropShadow_204_11866"/>
<feColorMatrix in="SourceAlpha" type="matrix" values="0 0 0 0 0 0 0 0 0 0 0 0 0 0 0 0 0 0 127 0" result="hardAlpha"/>
<feOffset dx="1" dy="8"/>
<feGaussianBlur stdDeviation="2.5"/>
<feColorMatrix type="matrix" values="0 0 0 0 0.0392157 0 0 0 0 0.0496732 0 0 0 0 0.0705882 0 0 0 0.05 0"/>
<feBlend mode="normal" in2="effect2_dropShadow_204_11866" result="effect3_dropShadow_204_11866"/>
<feBlend mode="normal" in="SourceGraphic" in2="effect3_dropShadow_204_11866" result="shape"/>
<feColorMatrix in="SourceAlpha" type="matrix" values="0 0 0 0 0 0 0 0 0 0 0 0 0 0 0 0 0 0 127 0" result="hardAlpha"/>
<feOffset dy="-2"/>
<feGaussianBlur stdDeviation="1"/>
<feComposite in2="hardAlpha" operator="arithmetic" k2="-1" k3="1"/>
<feColorMatrix type="matrix" values="0 0 0 0 0.0392157 0 0 0 0 0.0496732 0 0 0 0 0.0705882 0 0 0 0.1 0"/>
<feBlend mode="normal" in2="shape" result="effect4_innerShadow_204_11866"/>
</filter>
</defs>
</svg>
