<svg width="32" height="33" viewBox="0 0 32 33" fill="none" xmlns="http://www.w3.org/2000/svg">
<g clip-path="url(#clip0_53_1999)">
<path d="M14.667 16.5C14.667 16.8536 14.8075 17.1927 15.0575 17.4428C15.3076 17.6928 15.6467 17.8333 16.0003 17.8333C16.3539 17.8333 16.6931 17.6928 16.9431 17.4428C17.1932 17.1927 17.3337 16.8536 17.3337 16.5C17.3337 16.1463 17.1932 15.8072 16.9431 15.5572C16.6931 15.3071 16.3539 15.1666 16.0003 15.1666C15.6467 15.1666 15.3076 15.3071 15.0575 15.5572C14.8075 15.8072 14.667 16.1463 14.667 16.5Z" stroke="#0A0F1C" stroke-width="2.66667" stroke-linecap="round" stroke-linejoin="round"/>
<path d="M9.33301 16.5C9.33301 18.2682 10.0354 19.9638 11.2856 21.2141C12.5359 22.4643 14.2316 23.1667 15.9997 23.1667C17.7678 23.1667 19.4635 22.4643 20.7137 21.2141C21.964 19.9638 22.6663 18.2682 22.6663 16.5C22.6663 14.7319 21.964 13.0362 20.7137 11.786C19.4635 10.5358 17.7678 9.83337 15.9997 9.83337C14.2316 9.83337 12.5359 10.5358 11.2856 11.786C10.0354 13.0362 9.33301 14.7319 9.33301 16.5Z" stroke="#0A0F1C" stroke-width="2.66667" stroke-linecap="round" stroke-linejoin="round"/>
<path d="M4 16.5C4 18.0759 4.31039 19.6363 4.91345 21.0922C5.5165 22.5481 6.40042 23.871 7.51472 24.9853C8.62902 26.0996 9.95189 26.9835 11.4078 27.5866C12.8637 28.1896 14.4241 28.5 16 28.5C17.5759 28.5 19.1363 28.1896 20.5922 27.5866C22.0481 26.9835 23.371 26.0996 24.4853 24.9853C25.5996 23.871 26.4835 22.5481 27.0866 21.0922C27.6896 19.6363 28 18.0759 28 16.5C28 14.9241 27.6896 13.3637 27.0866 11.9078C26.4835 10.4519 25.5996 9.12902 24.4853 8.01472C23.371 6.90042 22.0481 6.0165 20.5922 5.41345C19.1363 4.81039 17.5759 4.5 16 4.5C14.4241 4.5 12.8637 4.81039 11.4078 5.41345C9.95189 6.0165 8.62902 6.90042 7.51472 8.01472C6.40042 9.12902 5.5165 10.4519 4.91345 11.9078C4.31039 13.3637 4 14.9241 4 16.5Z" stroke="#0A0F1C" stroke-width="2.66667" stroke-linecap="round" stroke-linejoin="round"/>
</g>
<defs>
<clipPath id="clip0_53_1999">
<rect width="32" height="32" fill="white" transform="translate(0 0.5)"/>
</clipPath>
</defs>
</svg>
